<?xml version="1.0" encoding="UTF-8" standalone="no"?> <svg xmlns="http://www.w3.org/2000/svg" xmlns:xlink="http://www.w3.org/1999/xlink" xmlns:serif="http://www.serif.com/" width="100%" height="100%" viewBox="0 0 3894 793" version="1.1" xml:space="preserve" style="fill-rule:evenodd;clip-rule:evenodd;stroke-linejoin:round;stroke-miterlimit:2;"> <path d="M1281.28,772.11l0,-472.448l222.738,-0l0,-58.341l-222.738,-0l0,-238.989c189.816,15.507 339.278,181.831 339.278,384.886c0,203.05 -149.462,369.38 -339.278,384.892m-26.413,-772.11c-10.775,-0 -21.42,0.512 -31.994,1.255l0,1.119c0.018,0 0.042,-0.006 0.072,-0.006l-0,238.953l-222.738,-0l-0,58.341l222.738,-0l-0,472.413c-189.632,-15.709 -338.879,-181.944 -338.879,-384.857c-0,-6.515 0.166,-12.995 0.47,-19.445c0.083,-1.791 0.255,-3.552 0.363,-5.331c0.285,-4.713 0.583,-9.419 1.023,-14.09c0.143,-1.482 0.345,-2.939 0.506,-4.421c0.535,-5.081 1.118,-10.157 1.838,-15.191c0.084,-0.547 0.185,-1.095 0.268,-1.648c19.041,-129.487 98.344,-241.38 206.596,-297.573c-153.586,59.144 -261.796,200.925 -261.796,366.506c0,218.721 188.734,396.03 421.533,396.03c232.812,0 421.527,-177.309 421.527,-396.03c0,-218.716 -188.715,-396.025 -421.527,-396.025" style="fill:#555;fill-rule:nonzero;"></path> <path d="M2022.74,593.79l0,-37.938l-114.5,0l0,-311l-43.937,0l-0,348.938l158.437,-0Z" style="fill:#555;fill-rule:nonzero;"></path> <path d="M2233.74,593.79c0,-3 -2,-24 -2,-36l0,-138.955c0,-72.503 -59.95,-83.483 -89.968,-83.483c-24.015,0 -50.531,6.987 -72.003,20.961l4.493,39.501c13.979,-16.015 40.994,-26.524 63.508,-26.524c13.508,-0 54.033,-0.499 54.033,49.545l-0,19.017l-26.016,0c-68.042,0 -118.484,23.95 -118.484,85.938c-0,45.554 27.958,73.5 73.456,73.5c31.019,-0 56.034,-11.977 71.543,-37.942l0.998,0l2.496,34.442l37.944,-0Zm-41.937,-91.5c-0,32.042 -22.514,63.062 -59.537,63.062c-29.017,0 -43.026,-17.511 -43.026,-44.528c0,-18.512 10.506,-53.034 75.046,-53.034c14.509,-0 24.515,1 27.517,1l-0,33.5Z" style="fill:#555;fill-rule:nonzero;"></path> <path d="M2471.24,593.79l0,-178.5c0,-49.491 -25.961,-79.938 -74.458,-79.938c-29.52,0 -50.533,11.979 -64.541,41.438l-0.998,-0l-1.498,-37.938l-40.442,0c-0,8.998 2,39.99 2,51.487l-0,203.451l41.937,-0l0,-155.462c0,-41.538 20.013,-67.038 54.035,-67.038c28.019,-0 42.028,19.5 42.028,56l-0,166.5l41.937,-0Z" style="fill:#555;fill-rule:nonzero;"></path> <path d="M2675.8,596.291c-0,46.038 -24.514,72.561 -71.039,72.561c-22.012,0 -49.015,-8.507 -70.483,-22.019l-1.997,42.484c17.474,7.487 53.969,15.473 74.481,15.473c65.035,-0 108.975,-37.94 108.975,-97.992l0,-224.446c0,-13.5 2,-33.5 2,-43.5l-40.44,0l-1.497,36.94l-1.001,0c-14.008,-24.469 -37.02,-40.44 -62.534,-40.44c-59.515,0 -92.465,46.442 -92.465,130.969c-0,83.527 32.451,130.969 87.962,130.969c29.016,-0 50.528,-14.474 67.037,-42.941l1.001,0l-0,41.942Zm-58.032,-32.939c-38.521,0 -56.031,-32.51 -56.031,-97.031c0,-66.521 19.01,-97.031 55.53,-97.031c39.522,-0 56.532,32.51 56.532,97.031c-0,64.521 -17.51,97.031 -56.031,97.031Z" style="fill:#555;fill-rule:nonzero;"></path> <path d="M2932.26,544.337c-17.973,12.509 -39.97,21.015 -58.482,21.015c-46.028,0 -69.542,-27.019 -69.542,-86.562l144,-0l0,-19.961c0,-84.034 -35.946,-123.477 -89.467,-123.477c-61.523,0 -98.47,48.951 -98.47,130.962c-0,83.027 36.947,130.976 102.973,130.976c24.515,-0 51.015,-5.49 70.985,-14.971l-1.997,-37.982Zm-128.024,-97.485c0.5,-52.542 20.012,-79.562 52.032,-79.562c33.52,-0 50.031,27.02 50.031,79.562l-102.063,0Z" style="fill:#555;fill-rule:nonzero;"></path> <path d="M3174.74,593.79l0,-178.5c0,-49.491 -25.961,-79.938 -74.458,-79.938c-29.52,0 -50.533,11.979 -64.541,41.438l-0.998,-0l-1.498,-37.938l-40.442,0c-0,8.998 2,39.99 2,51.487l-0,203.451l41.937,-0l0,-155.462c0,-41.538 20.013,-67.038 54.035,-67.038c28.019,-0 42.028,19.5 42.028,56l-0,166.5l41.937,-0Z" style="fill:#555;fill-rule:nonzero;"></path> <path d="M3295.74,593.79l0,-221l46,-0l0,-33.938l-46,0l0,-55.038c0,-25.517 8.5,-37.024 30.5,-37.024c10,-0 18.5,2 24,6.003l0,-35.941c-10,-2.503 -21.5,-4 -33,-4c-41.97,0 -63.437,25.453 -63.437,67.46l-0,58.54l-40.5,0l-0,33.938l40.5,-0l-0,221l41.937,-0Z" style="fill:#555;fill-rule:nonzero;"></path> <path d="M3534.26,544.337c-17.973,12.509 -39.97,21.015 -58.482,21.015c-46.028,0 -69.542,-27.019 -69.542,-86.562l144,-0l0,-19.961c0,-84.034 -35.946,-123.477 -89.467,-123.477c-61.523,0 -98.47,48.951 -98.47,130.962c-0,83.027 36.947,130.976 102.973,130.976c24.515,-0 51.015,-5.49 70.985,-14.971l-1.997,-37.982Zm-128.024,-97.485c0.5,-52.542 20.012,-79.562 52.032,-79.562c33.52,-0 50.031,27.02 50.031,79.562l-102.063,0Z" style="fill:#555;fill-rule:nonzero;"></path> <rect x="3600.8" y="218.852" width="41.938" height="374.938" style="fill:#555;fill-rule:nonzero;"></rect> <path d="M3893.24,593.79c0,-8.5 -2,-33.5 -2,-44l0,-330.938l-41.937,0l-0,154.938l-1,-0c-17.51,-26.46 -35.02,-38.438 -65.037,-38.438c-55.512,0 -87.963,47.438 -87.963,130.938c-0,83.558 32.451,131 87.963,131c29.517,-0 51.529,-12.977 67.035,-40.94l0.999,-0l1.497,37.44l40.443,-0Zm-99.968,-30.438c-38.522,0 -56.032,-32.51 -56.032,-97.031c0,-67.522 20.011,-97.031 55.531,-97.031c39.523,-0 56.532,32.51 56.532,97.031c-0,64.521 -17.51,97.031 -56.031,97.031Z" style="fill:#555;fill-rule:nonzero;"></path> <path d="M43.937,593.758l0,-162l106.5,0l0,-37.937l-106.5,-0l0,-111.063l112,0l0,-37.937l-155.937,-0l-0,348.937l43.937,0Z" style="fill:#555;fill-rule:nonzero;"></path> <path d="M345.961,544.305c-17.973,12.509 -39.97,21.016 -58.481,21.016c-46.028,-0 -69.543,-27.02 -69.543,-86.563l144,0l0,-19.961c0,-84.034 -35.946,-123.476 -89.466,-123.476c-61.524,-0 -98.471,48.95 -98.471,130.961c0,83.027 36.947,130.976 102.974,130.976c24.514,0 51.014,-5.489 70.984,-14.971l-1.997,-37.982Zm-128.023,-97.484c0.5,-52.542 20.012,-79.563 52.031,-79.563c33.521,0 50.031,27.021 50.031,79.563l-102.062,-0Z" style="fill:#555;fill-rule:nonzero;"></path> <path d="M603.5,549.816c-8.504,4.502 -26.511,9.505 -44.018,9.505c-70.528,-0 -111.544,-53.528 -111.544,-149.514c-0,-79.522 47.518,-130.549 109.043,-130.549c25.51,0 54.008,7.505 81.467,21.512l-0,-43.975c-24.464,-11.481 -51.956,-15.474 -81.967,-15.474c-92.537,-0 -154.481,70.954 -154.481,177.472c0,107.51 57.442,178.465 155.981,178.465c24.01,0 51.51,-5.491 87.457,-17.97l-0,-177.467l-100.462,-0l-0,37.937l58.524,0l0,110.058Z" style="fill:#555;fill-rule:nonzero;"></path> </svg> 